<svg width="30" height="31" fill="none" xmlns="http://www.w3.org/2000/svg"><path d="M21.028 1.012h.5c4.13 0 7.49 3.36 7.49 7.49V22.04c0 4.13-3.36 7.49-7.49 7.49H7.99C3.86 29.53.5 26.17.5 22.04V8.502c0-4.13 3.36-7.49 7.49-7.49h13.038zm.5 27.787a6.767 6.767 0 006.76-6.76V8.503a6.767 6.767 0 00-6.76-6.76H7.99a6.767 6.767 0 00-6.76 6.76V22.04a6.767 6.767 0 006.76 6.76h13.538z" fill="#fff" stroke="#fff"/><path d="M7.188 15.27c0-4.174 3.397-7.57 7.57-7.57 4.175 0 7.572 3.396 7.572 7.57 0 4.175-3.397 7.572-7.571 7.572-4.174 0-7.571-3.397-7.571-7.571zm.73 0a6.848 6.848 0 006.84 6.841 6.848 6.848 0 006.841-6.84 6.848 6.848 0 00-6.84-6.84 6.848 6.848 0 00-6.84 6.84zm13.22-8.552c0-1.039.846-1.885 1.885-1.885 1.04 0 1.885.846 1.885 1.885a1.888 1.888 0 01-1.885 1.885 1.888 1.888 0 01-1.885-1.885zm.73 0a1.155 1.155 0 102.311-.002 1.155 1.155 0 00-2.31.002z" fill="#fff" stroke="#fff"/></svg>