<svg width="31" height="22" fill="none" xmlns="http://www.w3.org/2000/svg"><path d="M12.783 19.223l.27.177 2.94 1.923h0a1.095 1.095 0 00.814.156 1.07 1.07 0 00.68-.452L29.934 1.325l.001-.002a.512.512 0 00-.046-.616L12.783 19.223zm0 0l-.272.173m.272-.173l-.272.173m0 0l-2.987 1.902s0 0 0 0a.837.837 0 01-.828.036l3.815-1.938zm3.742 1.25l.425.278.271-.43L28.295 2.536l.763-1.207-1.35.468-25.34 8.79-.96.333.85.557 3.327 2.18.242.159.258-.13 14.108-7.142h0a.762.762 0 01.985.247.653.653 0 01-.18.91s0 0 0 0L9.254 16.117l-.209.15v4.494l.769-.49 2.55-1.624h.001a.777.777 0 01.843.005h0l3.044 1.992z" fill="#fff" stroke="#fff"/></svg>